# xmcd CD database file
#
# Track frame offsets:
#	150
#	36781
#	39718
#	73345
#	104922
#	138026
#	168895
#	191244
#
# Disc length: 3007 seconds
#
# Revision: 0
# Processed by: cddbd v1.5.2PL0 Copyright (c) Steve Scherf et al.
# Submitted via: CDex 1.70beta2
#
DISCID=760bbd08
DTITLE=The Merlin Factor - Frontier Tunes
DYEAR=1995
DGENRE=Jazz
TTITLE0=Go For It
TTITLE1=The Cowboy Serenade
TTITLE2=Frontier Tune
TTITLE3=The Gentlest One I Know
TTITLE4=Journey Home
TTITLE5=She Never Has A Window
TTITLE6=The To-Day Show
TTITLE7=The Danger Zone
EXTD=YEAR: 1995
EXTT0=
EXTT1=
EXTT2=
EXTT3=
EXTT4=
EXTT5=
EXTT6=
EXTT7=
PLAYORDER=
